<mxfile host="app.diagrams.net" modified="2023-03-11T08:03:45.968Z" agent="5.0 (Windows NT 10.0; Win64; x64) AppleWebKit/537.36 (KHTML, like Gecko) Chrome/110.0.0.0 Safari/537.36" etag="DXThxIEch5fAtFWStvZ4" version="21.0.2" type="github">
  <diagram name="Page-1" id="YKlwGHBmxDkFJVeAYSyR">
    <mxGraphModel dx="1050" dy="515" grid="1" gridSize="10" guides="0" tooltips="1" connect="1" arrows="1" fold="1" page="1" pageScale="1" pageWidth="850" pageHeight="1100" math="0" shadow="0">
      <root>
        <mxCell id="0" />
        <mxCell id="1" parent="0" />
        <mxCell id="h04FcvrwTLZJZCFSyWnr-12" value="" style="whiteSpace=wrap;html=1;aspect=fixed;fillStyle=solid;fillColor=#d5e8d4;labelBackgroundColor=none;strokeColor=#000000;" parent="1" vertex="1">
          <mxGeometry x="23" y="151" width="190" height="190" as="geometry" />
        </mxCell>
        <mxCell id="h04FcvrwTLZJZCFSyWnr-13" value="&lt;p&gt;&lt;font face=&quot;Verdana&quot; style=&quot;font-size: 18px;&quot; color=&quot;#ffffff&quot;&gt;Docker client&lt;/font&gt;&lt;/p&gt;" style="rounded=0;whiteSpace=wrap;html=1;fillColor=#000000;strokeWidth=1;" parent="1" vertex="1">
          <mxGeometry x="23" y="131" width="130" height="40" as="geometry" />
        </mxCell>
        <mxCell id="h04FcvrwTLZJZCFSyWnr-14" value="" style="whiteSpace=wrap;html=1;aspect=fixed;fillColor=#d5e8d4;fillStyle=solid;strokeColor=#000000;" parent="1" vertex="1">
          <mxGeometry x="253" y="151" width="340" height="340" as="geometry" />
        </mxCell>
        <mxCell id="h04FcvrwTLZJZCFSyWnr-17" value="" style="whiteSpace=wrap;html=1;aspect=fixed;fillStyle=solid;labelBackgroundColor=none;fillColor=#d5e8d4;strokeColor=#000000;" parent="1" vertex="1">
          <mxGeometry x="632" y="151" width="190" height="190" as="geometry" />
        </mxCell>
        <mxCell id="h04FcvrwTLZJZCFSyWnr-18" value="&lt;p&gt;&lt;font face=&quot;Verdana&quot; style=&quot;font-size: 18px;&quot; color=&quot;#ffffff&quot;&gt;Registry&lt;/font&gt;&lt;/p&gt;" style="rounded=0;whiteSpace=wrap;html=1;fillColor=#000000;strokeWidth=1;" parent="1" vertex="1">
          <mxGeometry x="643" y="131" width="100" height="40" as="geometry" />
        </mxCell>
        <mxCell id="h04FcvrwTLZJZCFSyWnr-19" value="&lt;p&gt;&lt;font face=&quot;Verdana&quot; style=&quot;font-size: 18px;&quot; color=&quot;#ffffff&quot;&gt;Docker Host&lt;/font&gt;&lt;/p&gt;" style="rounded=0;whiteSpace=wrap;html=1;fillColor=#000000;strokeWidth=1;" parent="1" vertex="1">
          <mxGeometry x="253" y="131" width="140" height="40" as="geometry" />
        </mxCell>
        <mxCell id="h04FcvrwTLZJZCFSyWnr-20" value="" style="rounded=0;whiteSpace=wrap;html=1;" parent="1" vertex="1">
          <mxGeometry x="273" y="261" width="130" height="210" as="geometry" />
        </mxCell>
        <mxCell id="h04FcvrwTLZJZCFSyWnr-21" value="" style="rounded=0;whiteSpace=wrap;html=1;" parent="1" vertex="1">
          <mxGeometry x="443" y="261" width="130" height="210" as="geometry" />
        </mxCell>
        <mxCell id="h04FcvrwTLZJZCFSyWnr-22" value="&lt;font face=&quot;Verdana&quot; color=&quot;#ffffff&quot;&gt;&lt;span style=&quot;font-size: 18px;&quot;&gt;containers&lt;/span&gt;&lt;/font&gt;" style="rounded=0;whiteSpace=wrap;html=1;fillColor=#000000;strokeWidth=1;" parent="1" vertex="1">
          <mxGeometry x="273" y="241" width="100" height="40" as="geometry" />
        </mxCell>
        <mxCell id="h04FcvrwTLZJZCFSyWnr-23" value="&lt;p&gt;&lt;font face=&quot;Verdana&quot; style=&quot;font-size: 18px;&quot; color=&quot;#ffffff&quot;&gt;images&lt;/font&gt;&lt;/p&gt;" style="rounded=0;whiteSpace=wrap;html=1;fillColor=#000000;strokeWidth=1;" parent="1" vertex="1">
          <mxGeometry x="443" y="241" width="100" height="40" as="geometry" />
        </mxCell>
        <mxCell id="h04FcvrwTLZJZCFSyWnr-24" value="Docker Daemon" style="rounded=0;whiteSpace=wrap;html=1;fontSize=15;fontStyle=1" parent="1" vertex="1">
          <mxGeometry x="273" y="181" width="300" height="40" as="geometry" />
        </mxCell>
        <mxCell id="h04FcvrwTLZJZCFSyWnr-26" value="docker run&amp;nbsp;" style="rounded=0;whiteSpace=wrap;html=1;fontSize=15;fontStyle=1" parent="1" vertex="1">
          <mxGeometry x="43" y="291" width="150" height="30" as="geometry" />
        </mxCell>
        <mxCell id="h04FcvrwTLZJZCFSyWnr-28" value="docker pull" style="rounded=0;whiteSpace=wrap;html=1;fontSize=15;fontStyle=1" parent="1" vertex="1">
          <mxGeometry x="43" y="241" width="150" height="30" as="geometry" />
        </mxCell>
        <mxCell id="h04FcvrwTLZJZCFSyWnr-29" value="docker build" style="rounded=0;whiteSpace=wrap;html=1;fontSize=15;fontStyle=1" parent="1" vertex="1">
          <mxGeometry x="43" y="191" width="150" height="30" as="geometry" />
        </mxCell>
        <mxCell id="h04FcvrwTLZJZCFSyWnr-30" value="" style="outlineConnect=0;dashed=0;verticalLabelPosition=bottom;verticalAlign=top;align=center;html=1;shape=mxgraph.aws3.ec2_compute_container;fillColor=#F58534;gradientColor=none;" parent="1" vertex="1">
          <mxGeometry x="309" y="303" width="60" height="34.5" as="geometry" />
        </mxCell>
        <mxCell id="h04FcvrwTLZJZCFSyWnr-32" value="" style="outlineConnect=0;dashed=0;verticalLabelPosition=bottom;verticalAlign=top;align=center;html=1;shape=mxgraph.aws3.ec2_compute_container;fillColor=#F58534;gradientColor=none;" parent="1" vertex="1">
          <mxGeometry x="309" y="358" width="60" height="34.5" as="geometry" />
        </mxCell>
        <mxCell id="h04FcvrwTLZJZCFSyWnr-33" value="" style="outlineConnect=0;dashed=0;verticalLabelPosition=bottom;verticalAlign=top;align=center;html=1;shape=mxgraph.aws3.ec2_compute_container;fillColor=#F58534;gradientColor=none;" parent="1" vertex="1">
          <mxGeometry x="309" y="415" width="60" height="34.5" as="geometry" />
        </mxCell>
        <mxCell id="h04FcvrwTLZJZCFSyWnr-37" value="" style="sketch=0;aspect=fixed;html=1;points=[];align=center;image;fontSize=12;image=img/lib/mscae/Cache_Redis_Product.svg;" parent="1" vertex="1">
          <mxGeometry x="660" y="290" width="47.61" height="40" as="geometry" />
        </mxCell>
        <mxCell id="h04FcvrwTLZJZCFSyWnr-38" value="" style="sketch=0;aspect=fixed;html=1;points=[];align=center;image;fontSize=12;image=img/lib/mscae/Docker.svg;clipPath=inset(0% 0% 23.81% 0%);" parent="1" vertex="1">
          <mxGeometry x="767" y="131" width="57.82" height="37" as="geometry" />
        </mxCell>
        <mxCell id="h04FcvrwTLZJZCFSyWnr-41" value="" style="shape=image;imageAspect=0;aspect=fixed;verticalLabelPosition=bottom;verticalAlign=top;image=data:image/png,iVBORw0KGgoAAAANSUhEUgAAAHgAAAB4CAYAAAA5ZDbSAAAU7ElEQVR42u2aZ5hURbqAv6qTOvckZoaBGSRjIIhKEJRVCYqiLrp31X1cr2vaVRCBQQkSVEBQQdDdvYpelbtiXlkBGTIjCyJBFiTnNHmm6RxOn3Pquz+GHnp6Tk/YP/f+qPd56kefrlP1pQpf1QHgcDgcDofD4XA4HA6Hw+FwOBwOh8PhcDgcDofD4XA4HA6Hw+FwOBwOh8PhcDgcDofD4XA4HA6Hw+FwOBwOh8PhcDgcDofD4XA4HA6H8/8cMvnw5+KqszuGBOKhhwCxFwA9YZGVH67J6rSqZMi0UFsb7LZmXH+/GvqDQGhfzdB2uyzOtb/vMXzbKz3Hamb1xx/+Qvzm5MYRlZFL1wEQbKv8OYrz/O2F/dd8NWBCpLmKN26cevVpX1lxUI/9hhACOYpreZ+crrPX3zL9UqLO2B/fsu+qOToqpms3CJQyt2z758C8a7Z8etM4va12uGPrrIJj/oo7NWZcrTMjZhfkXQNzr95bfPOkqkGEAABAn/VTel0MVD6oCPJQjennnLJt5ZC8q0tXDJygtqUvRIShpbO7nvFXDGfMuB0R3Qiwsru749fiihMbF/vV0N0xpndGREII+ZUcp7+J6/EeN22e8eaeO+aFW9vR1WsndCkP1S4N6tEhiEAIIUNV1O/+4nTp7wFgt9k7uyoODAyq4SUA0AMAWFsdHNajlb94zlwCgE3NGaDL6j/+NqCFHzOACIAAnpj/sVOB8r0AsBwAoPjEt+LnR0sm10T9E3RkWQQAAvHIeU0/WBxB/LuNtD74+q6d1Ovn2tPzwoZ6p47MBgAYItSzrergmrMbp74EADW3ls7OOlR39lW/FnmAaWFKgGBIj963qWL/+9ete2HJoTuX+Frb3zVrX+hSHfEsDuqxkToyCyKCQOnNh73nRtHqiPePUaZ1QQAChAACgIpGZm3MX1wRrH5y1tlVYms7CqnRm8K6OgiBNLQV1tWevljwNrP6X3sOCOXh2tERI94NgAAA0DYWEjO0gtqI909jf1zkSifX+KNfChEj3okhCIlnOjJnbcTXL/H7cPXJLK8aGqMxIwuhPtJihtbJq4WfemTnm5mttcHQzS93PB+pWezXImM1ZDYEAAQgcTRyPPHg7y6Ga8cAAFwM1V4f0qOjGCAFIIAARGV6fl3UP6064p1/85YZ2a3pr+f3z3euiNS97dUi92jILAgAQAgYiM5APHwPRUKMy8ZNgoDOmN0TC0z77MjG+xFbF7yImIPkihHrHzJQqOA0a+OVPcv7edXQQ/VK/nsgEAjEIyN+rjt5X7o6Z70XiMGYPVlNBADV0KWEXOX+6myDsYwmpkCWFdKi9tbIMmr7XPtx38UpgXhkBJKmNmWIEmNGzuUHOTpj9sa2J2AAyN5Y8A+nfGWzBm2e7m6uv/7riztURzxvBLXoGKwP+MaiE8LSG5YQiDEtrzJcN7NnyYQBrVGQAUomDQGQJtrCu+fWC7WRS49GjXiXJgGG2HyBxsGioeGsi/mfvWFdcVE6XdJpefhCFQAAqIYmAaCQWgEBaZwZLQbgf+xZqhyqPTvOFw89wQDSznqUEicAgETEswoVa1N1AQDQARSPGnr6lL98dp8Nxaazx3XrJhadCVQtDmjRX7OmIxTq+xAutSA4gYge61MRqn2t7/oXu7SkJJp2hECw6dr6zuHVQ73x8AOp6gmEaC7FdiLT4tibaXHsSSp7MyyOfVkWxy6rqJSlyhnV1Rurot7HPijb3sRJBjJiKhsB7KHnJ2RPYwEwZCq2uDfYW3XsgTo1MEVD1vxoJ8S6IX5UGJjb47BDsqxLF3oGosWrhp6rDNW9Oqx0TiMn99vwYteyUO3bAS3yIAMQzN4XgURzLa53W4xMBAIRXR1REa6ZOXr7goxmZTe1EwEkjaePu36cb70UCz6uMaNjyvvglGybemQX3V+UWXB3p8wOY5LKPUWZBXd3yy68p70t+zkLFSuSu2OAokcNPrn44DfDUiVgadwnEYFKXSDt8K73B2UWKjXr4MLvnr61POyZozI9G5pvDhAIOemrJn+7aVy4nT17iVWwbG/GybJXDT559NK56YM3v5wBANB7/aSrLgQrFwbikV8zk2kZAIACMLdi/6p7VuGHrdpAMQByKRZ8aG/1sRNP7/tw0bL+T8ZNG0Yw0iglX/YfAgAc85QNCWrR0alml4lQnW1xLd172+tHm5NntffQ98/88PZ/V0W8069EMIEY04qqI5eevfenRXtWDZocbJAfGQBgEzsSQsSEXBQJmqVpiEwMG6qQTpZr103sfT5QtUA1tO7NLAVX+gRAh6AAAMCROxcf6Lt28rNnQpV/CenRW9AkOHREi0cNjqf+ctZ97fNflAVrZ/nj4XvTTcsUgDkl65ednO1fLh02p5amEaLJ2wYwiy8enrT2wq4HETGdJqZDhSBoif9u2DTFVRvzPaUxvV1qn27ZtnJQbo/Slow0JvM6o6Oj3Yd2Udl1ZU1GAAQIxsMjD9WefiBZRoHQJOmurOOIaCSeSkCZmfxYX89UjgGbZhSVB2sXhvXYoFTnNufq5NYOjF50sIMjZ6JNUHaSNDONgUypUwPjy4PVq/zx8JjmRq5Ltq3s6i6Ytm/kwrLLz5p2bxOVigzFvoNA8ogkEEc9xxPzz+5VMmFIS05I1jSgReKJfVZN2Dcspqsjmo5eejpDtn+4YkDrkvzdwxdcyFHci22ifNEqyn6rKPsskuwXqEBVXR0zfOsrDWmTRCRmoVKlXZQr7YJy0S4qZXZRqVaIVEcS+W2aRTidox7Yudh1LlBeHNAio7CRdxEUKp7Ltrq2UADTAxJMMfux0e/8XOTIfc4uWnaZ90dAR7RGjHjHdGuuQIjuku2fdcvoOHnfyDfPJ543naIRQKJCdSdn3jTdKH8tqMWGXZGfQJRpPSpCdQv6rpv4+IE73z7ZoicQwC4qgg8A7vnxrbztFfuf15FlJpuOAECG4vhy5z1L92XDX1vjXwAAcNtcq1EWywDAWn+cAZQhCnYi+4OxUDRR7/FYN8Pr8CwMYOYnlFDGEAkCUie1Vuy8XCdODGo2jZv5/alfPrKUnNk50RMLPpk6mkQiBHKs7vlOUaG+aGBIczvqZI6MXvqvXiUTJpYFa5aEDXWAeWiZu58CGJmK45vrsjq/WPqrOZWN5DF7gSGKDOBke3v2LD1U+0lUj3dOdnJIj958OlA5Y/DWl6fuvG1uVUvCC1SwICLpsua5u8NabHCqoAoVj2Yojs+yidRgz1E/LZIO1Z6wV4bqRGY+R5L9NScRDO04IACVZJAlBSUqgAeQyCA6r/r2j9FzY9+LjL3tXnixZHOdJ+oN2m1OlmFzGzmyzciktoYRpoFB63PJ1KmWkuQ0b2O0gjy+YfaDtTHfeAOYNbm+ACSerTjfvblD7+X/qjr2BLS040rup76LnR1XPjkO4/BB1FD7YitepwBGhuL4e2d3x5dSnXv5f1NYxFDh+Oh3t+VZM19RqNAoX0MgJKprj5z2lk277Yc5jtYo0HfdlOy6qPcxjRmN0ggBiOZW7J8cG/3ukcSzIZtmFByuPrbQGw2UIOJmANhiUjYDIVtAlH8ASf4BCC01mF6q6vFSXdO2qrq6wQDjLgCAB3YvFaLxyCxVj5f6w/6N5Z7yksNVp9bsrz75dCJ2GJqmUWAAaqF4tCEQnt4099a6qL/JjpkAMLds+6ZXZqclX9/4fJwBitCaXVcKF+//YE8Xd/spdlE5mT55a+gTMi3Olb2yOhXvuWPehTQBYApSqA/c4QXXf5Zlcb0lEtroMN8AlC6pwSdO+cqfnnt6TeKAw0QiBACII2D9NihFZUJI1CVbjyXWwkmHVoinA+UTK8Oe5yN6bBAC9IFWFIasr2YY/eKG3i9uaP0EQmyZNtdxAIBgNEhVXe0ZM+L9QvHIQF80eKsnGhjuVUPXX7YTWEEyCBCWqgIlRLJIsggA0G9DcZ/aqPf1GNO6NnYugkOy7OjozJvzw21z6tLbomUIIeCU7CdkKta0pgWrIJ/u5MyrS/d/Ogc3SP/hjc9o1+f2WJYhO1aSlJlSR2avifpe+ujI93fXq4RpGkN28K5FdblW9zKJCMHk/wxkrpqI/+FR2+dlAAAc8Z5r59diIwxAoQ0zXCMEQrQM2bH8u1GzjwAAdHDmE0oF0qAaqc8TdGTxhCMUIhgk9bIDASgQwy1a9Os3vlh42l+xIKyrKUsMgkLlE/m27Om/jHqrYU9CmjNIM/Tf+GLBaX/ZfL8WHdjSBIAAUBXx/mlb+f7nHt7zjtIWByNJygnXDpnqK3LmvW6XrD81lpmAyvTc6oj31T7rJg8ghGhNoo4QCMSjBgBA35zu6xySdVtyGwgAET127ylf+WMAACIVYgKhgX8v/uttahOVffn2zM86ExcDAIiwGKKJsSmhYsIGMdAEszUYkWFQj2efD1TNDmuxUZjSl0LFqvaOnNkrRs/bkaJ4m0Ufsnlm4blA1ZK6WOC3BmKrNmc6Gq6aiG/6tooDz9+1Y66liY7NWKqRhPtGvnHYrdhfsAjSoVRFIoba+2ywcpFGjJGY6hkEsIoyAQBYOXjypSyL86+yIHqSq2iM2eqi/rG/2jond82Qqd5sxfmeTZDKBEKQkCt5eXJJh0hpLMvi/p89wxdeTDwLaWGE+py3ifPg8gg26vVtkszGkRUc9Z6f6Y+HH07dMUtUCOQorrm9czp/M4C4mipuDsuSm55m9t80resR3/m3fGro/nSpkDkENDQyayL+6ftrzxaP3f12o8bTOBip2fFe2b3LdufbsmbJRKhK2XRBSIsNrYn5f930zBdBpkLDYcFNud22OSRrSaNKhEBYjw04Hah4pBaRDs7p8XWhu/3TLotjlkTFBZIgLZBF6fVEEQRxvl2yfCRTofEHCYhgF627e2YUfUsa3d+ah4WOhpGoJwC9clqS9F7U0DrWxQIPGoi25HeF+t3rR0M69F6+alBxmg8CzI7mURvpuLrRUjBw84y8C4HKuX419CADkNK0xAQgKqQ5DtbQyKiL+afsqTryzCN7/9IwXbf6rrfeDwQXnFq9+s+HvutcFfW+qiM2RMtl65gGTPLk+MWASaGea59fFtXUYVEWL0wYQWfM4lWDj43ePG3VnuELzgBAyeVi0h6SDt899WK17m207ohUiGZbXR9vuHV6i6lbW2iy6gCAS7av6Z1x1RtfDXihbV+9IDBLkpmGlc7JP+w5+4a33rlpTxZdsm11tuz8siJyaWqMaX3MamnMcFWFvTO2VRww7t/55nv/GDxFNXcIAME0SdjUbmP0zq7CZRmK42MBzM+eW+LBToN3OiXLCpp89ksIRHT1uspQ3aNzz65uNvCu3zjlBq8aeMpA1hDtBBCcknVLkbNgdRuM3diKrVr4EZySdXeRM//lLbc3zTtbhBB5e+wcAQAYunV29lHv+bneeOhhA8zXXAqATsm6rpMr/6Uz9/7X5x3sOROtgnTcXFYCGhpZ1WHv7J9rTvxh/OFPpTQRQ1Ak6ZeBf94+O9Q9o8NbbsWxibTGKCmhMu/ah/X29nafK4J0Knl4X74ReuLTo5uG2798yA6fjXU0Kp/e5+i8+tncslDdhJihN0pVJCL4822ZH5YOe9nTskAJW5OGpYOYCWriXKsgn863Z8/YP/KNQy1WNnkgUCpZRCuZeeI76Zy/cpwnFng03YaKAmCGbF/fI6Nwwi8j3zoOAHDqnj9v6WjPmSQTMb2TmZ5ZE/XNLjm7c2yaKRUlqyA3O4p23j7//FXu9jNtovKvZrMBQiCgRTH1zn//qDcP2gTrMkpoo/PuqKEVnvKXvx8x4hsAYH2jQoX154JV33vV4NjUweeUbau7uwu3mIlgIJjeB8tUEhJe1QBpfZ309ygSEX251ox5x+9aupm0fIaBqQ4gAIDI4jeKefrXZ0q7+eLBRw3GZFOzAYBLsm3rldlp8t4RC05cMSeBb0fMK8mzZo6zCrK5kwkBlRl5lZFLM81HMCGahnqLXxLuG75wT3t79jSrIJennd4QwEIls6s6bGd3f2UVpX2p7+rIihDgZjApCHBj6oZHIkKFW3EsWzVkSsDcWOayaUxruE1SREkjzSw5AtBoO5t78aCC3p+TVnyAxwBkANLEvqz+w0bwRH35MUMrMMt1L9+sbeuZWTjpxzvmHkn9v7eSgcfve39zZ0f+JBuVT6WzfViPdadmn6lIVPDZZFurbnVuLey/uZ3VNUMhYrVZR4QQJIT6zN49dtfSC1kW18cCoW36TDTVGHbZ+l3/vJ670tW5yl3AJEJDkLKvlgUpnBiJ7Z1ZlZSSmqazEQIF0FyS9aPOrvbvfHnjuFhr5FKo4IeU2yQCAAait77ZNIdCiOCWbVt7ZRaN3zX89X3p2rcRgodHLykpsOdMsKR1MgHqlKw/UQAj8b0TJUSzCPL2oXnXtGp3+FGfJ/S+uV1X5NrcMy1Uqmq4b71cbKJy3GlxNJk6i3/5vN6wjtx/2EXLDkDW8rdYTQoDiyCdy7NlfvTNTRPi6WR877rfG07FvlWgQighn0RoXXtb1o+JOhtvmeHLVhxfSFTwJeXbKFPxUpbieDfb4p6947bX/K2xCQBApmzb6pAsOwkgJnSziPLBHKtrMwBAri3zgk2Qj15xNAIFMNyKfV0nR/74n+6Y/0tLfRBCcGK/h9Z1cuROsAnyweSTRgLAFCqeIN3XjL82oAZfUMEYAUBAJvSrLhkFi366fX51a5UBAPjdvvfkLWU/j9a1+G8YwA0ISCVCz9pl258fvXpUyStd72sUzZN++QwAqLC4z0NGtzXjxgbjwWIDwQoAIgISku4Tr4Q1CCAgUqtkWTW86IZXP+73TLOzwIh/zncd9557tSbqe0wgNNZOcX7QO6vrgtW3TG04Y79zx0L7gdoTYzQtfpNAhCwDsMYmK7uub9dzw3eDJ7cpHUJEcu36iX2rQ55HREIHaMiO2EXr3y7c9/5OQgjsiJ6l/7npzTEeNfiyX4tcaxFlj0NQvih05b+/d/iCU23p65OKXeSVfcsHBuOhaUEtNsxgTMySHVuyre65bWmHw+FwOBwOh8PhcDgcDofD4XA4HA6Hw+FwOBwOh8PhcDgcDofD4XA4HA6Hw+FwOBwOh8PhcDgcDofD4XA4HA6Hw+FwOBwOh8PhcDgczv8J/wtJp6UJdJt75wAAAABJRU5ErkJggg==;" parent="1" vertex="1">
          <mxGeometry x="741" y="230" width="60" height="60" as="geometry" />
        </mxCell>
        <mxCell id="h04FcvrwTLZJZCFSyWnr-42" value="" style="shape=image;html=1;verticalAlign=top;verticalLabelPosition=bottom;labelBackgroundColor=#ffffff;imageAspect=0;aspect=fixed;image=https://cdn1.iconfinder.com/data/icons/operating-system-flat-1/30/ubuntu-128.png" parent="1" vertex="1">
          <mxGeometry x="744" y="185" width="50" height="50" as="geometry" />
        </mxCell>
        <mxCell id="h04FcvrwTLZJZCFSyWnr-43" value="" style="sketch=0;aspect=fixed;html=1;points=[];align=center;image;fontSize=12;image=img/lib/mscae/Cache_Redis_Product.svg;" parent="1" vertex="1">
          <mxGeometry x="485" y="414" width="47.61" height="40" as="geometry" />
        </mxCell>
        <mxCell id="h04FcvrwTLZJZCFSyWnr-45" value="" style="shape=image;imageAspect=0;aspect=fixed;verticalLabelPosition=bottom;verticalAlign=top;image=data:image/png,iVBORw0KGgoAAAANSUhEUgAAAHgAAAB4CAYAAAA5ZDbSAAAcUElEQVR42u2deXhU5dn/P/c5M8lMEiAhEHZClpmwCLII2hYXrFsVrV18bW1rbV/fKqhVUAi4C6Igahfbt1q11lqpfV1+FbCKSNVaAUFQthAmgbCFJWEJ2Saznfv3x5lAErJMwDaJ13yu61yQc86znPt7nvvcz3OeeQ7EiRMnTpw4ceLEiRMnTpw4ceLEiRMnTpw4ceLEiRMnTpw4ceLEiRMnTpw4ceLEiRMnTpwuhaomqmquqhodXZc4XzCqmqCqd6nq56r67bjIXyKiLXeGFaqtilTuVI2EdsZF/pIQFTdfw3XV/s2/1sq/X6bB3e+oWpE9qnpNR9cvzmlQL64V9lf7Nz+lFa+O1KOLsvTYm+dqcPfbqlZ4t6pe82VtydLRFfh3oqqJwDQidffWFT6XHCh4Bo347ctWCyO5P+6x9+IccPEexJgOvCEiVkfX+4vkS3nXAqiqE7hNI3X31G19LjlQ8DQaruX4PS0GVk0p/vUPEypdPgi1ngC+2dH1/qJxdHQFYkFVuwE92nld12KF7w3tXJIS2rUESUgFw4mGqqOnCOLsjoZqqNvyW8SRPNjR56tPRm+M9wAlNg9nAdUiEu5oOzVHl3DRqvoTSyM/i2jAQLXN0x2m2wXkRUKVrkjlDrCCGIabcMkbBIr/AliIIxnXiKmYacPACiGunpipw8BwHUJ1A+BHpK3CDKAWuF9ECjvaTs3RJVowMOCIv/DsreV/lYgGm70r7eYmZKZeRN+UsRQfWcyh2gLAQEQY2vs6UpP6gYh9suHA7DmKfVuTKdtYjFABspP0Ed5eg76WN2nv6h0V+9ftCokhzTYCtZTuA1IZ+p1xQcNhpHa0gVqiqwis1cH9uv3oUglHGjxHTxxGxCS351WkurLYcPBZCsoWEbHqAEHEYED3iaQ2TKegarFjxU42/mkNIoKqkpxRwDl3XmL0Gtq3596V29m3difNSWxFlD6jBtR6rzpzn+FI6Gj7tEiXCbIEEAxETt4Mw4k3/VuM6XczvsNvUFD2MpYGETHtc6KtuNl8DUFMezMcBrWHqln1+DIO+w5y/oNXMvAr2YhhIGbjzTAFMTq/+Tp/DdtAxCAnbTKj+t7ItkOvR8UNcarhhRiC/3ANqxYu41DhASbefTn9xg3u6Ms8Zbq0wIpFj8QhjOrz3xyu3crW8r8Q1gCnGzuKIdSWV/Hp/36A4TQZfeO5JKQk2s/uLkaXFlgQqgJ78R1+nTSXh8zUizAwOV0lVJWE7m6GfnssAIWvrydYHeiS1uoqQdZxFMUhiWSlXUZ1sJT91WspKF8EwOi+P0MQio68eer5q+JMSmDczeeTddEwVi1cRsl7W3EmJzD0W2M54jtI6ZqSLtOYu5jAikNcjMj4ISMyrscfKmdN6eOUVq2moPwvAIzq+99YWGw/shR7DCJ2d62qJCQnMm7K+WRdOJRVjy2jZIUt7ribzueM6yZQVVrBR/PeonR1CV3BZ3cZp6MoTiOJkX1+Sm7Pq1i379fsq1rDhIEzGdT9XCIapKD8ZXyH32BM35vI6Tm5XZenqiQkJTL2pvPJumg4q55493jLPeuWSeRcNoKVC96hbFMp5903mYFfye4C8nahFuwwXIzs8xMG9jiP9fueoqRiOQlGCorF+AF3ImKw59iHFJQtQjAY0/cmQKMtuQ0pFJxJCYy56TxyLh1xwi2nJDD+lklkXTycVQuXsWN5ASUrtnLO9EuYeM8VFL21MYaBtQ62W0dXIEbMPsljJdnZl3X7fs2uihUIQtCq5vP9vwMsxvefjmCy+9j7bC57CcV+JgPsOPp2i0JoVNyxUXFXP/EuO94rICElkbNumUTWRcNY/bjdmkUE/5FaVj+5nAl3XMSYG89NdCQ6kujEvrrTC6yqGcBZYcsv6/f/hp0V7yHR52q9yJ/tfxpLI5w14A5EhF0VK9hS9icEGNP3ZgQDQwxO0qFe3J+dR+7lI1n9xHK2L9tiB1lTLyD74uGsXLiMkuUFx5OIIfiP1PDJL5ZjOAzzjO9PSAPGqOoaaXvs+j9OpxZYVfsA81C+UV67mdLKlSedIxiErFo2HHgWUM7qfweCwc6K99hS9mdAGN33ZxhGIqrFnGjKCqp4rxyF4TRY/eRyti/bjDPJybgp55MddcsNxT1eZnQwZPOr6xhy+Uh3Sg/3bOAg8P862mZN6bQCq2p/4NGasqrravZVOSKDQijabEwsyHGRLY0wrv/PETEpObqMLWUvAcroflNQdwYYToj4EWcKZnIv3JLMP+csscV1JzBuyvnkXHoGq59Yzo5mxD1epkAoEKLiaA2l+ysG53r6PKn2zfNmZ5o00CmjaFUdADxWW171g3898nfHzve3IQYoESyNoM1sqEUwUs2GA7+n+MhSxvabSnba5UQ0wOayP3Gwej0JgyeTmHMt4u5D4rD/weiey9bXPqX47U04XE7G3Xw+2ZfYQdb2tzejEQu1tOVNlTp/iKeffp/33y8cosovgKs70/SfTteCo+I+XlNWdc3Hj75t+v72GRNuvwS3sxcDUycSsQJt5cCx4A5qwgeYMGg6Sc7eHK0rxhAnONz7XSNv7+kceEmi2Wt0LTj8htNM7zcuk9zLziDvm6PZ+to6/Ier6Td2cKtdaI0o3XN6k+BysGfvEeY9vBjTlMwLLhj6ZLQF/62jbQmd7IW/qg4GFlYfOPadj+e/YxYt2YBGLEZe/xVG/ng8Ya0jln6J7coN3O5UkvqmEJG6kMNwlZqS8CLQG/gO8BRwZl1F7QVWKNLL7OaSI+VV1Byqjs0yCmaCScAwmD37VTZu3MuQIencc+9VXHDB0BLDkOnA4o52151GYFXNBH5Rc7Dymx89/JZR9NbG46/4XKlJuNKSjkfPMeUHmIkmI743gRH/NT5gJpovAg8AIWAEsAYYBcyvOFY76blnP2RtdAhSYi1GIRSKUFJSTm1tEMuyGDiwJ/c/cDWTJg3dCUzDfiZ3WHTdKQRW1VTgt4Fj/us+fHAxvjc/b2xltUeaTiFjErq7+drsbzDi2vGVYsgM4DkRsaIzLufU1ASm/eLJZc5Fi1YTDIZbfG/cQgHYEwrkeHUjEYvMzF48Ov+7TJiQvQP4iYj8s6Ns21mCgSBQIYaEElISMZxmI1espziOoIDT7cThciKG1AIV2APU9YdrDcMIO53mKVY72h9vcE+ICIYp9dWPAG0FDf9WOkWQJSK1qnpPQjeXfuWuS280Ex2Jm15ajRWyACXd24deQ/vaMytizFNVEYdJzqUjGDIpLwh8CBQAA1S1H7AF+Nztdq679baLJ2ZkdGfT5lJAYvZrAtT5g6xcWURNTRBVJTu7N/fdfxVnn529DbhZRD7pUNt2ZOFNUdU04P7AMf+UNU/9I3HTS6sI14UZf8sFeH/0FfaWHsWy2o5ZVBWXK4HsnN74Qxb79h21+vdPDaSlJb8I9ATGAvNBr7eq90zQiN9F8hACNVVY1buJdeRRnMkcruvNDTc8x66dh8nNzeDee69i4rmebSIyRUTe72ibdooWXI+IHFXVBxN7uK0Jt1041XAYrs+f/xeOBAcFRQd55JEl1PqDrQZblippaUlMnXohkmDyy1++y7bCA8a9913lvuii4d+rDpam1AQPOnonj3rEwDACvhddob3vkZB5Be7c6wgc/gehXUtRtVq//a0IRvponNlzQCEnpzf33ncVEyd6fCIytTOIC51MYAAROaaqDyX2cOuE2y6cKuA2Ex34/UH27augpibQYiBkWUp6egrX3nw2Awak8ci8paxcWUSfPj1I75mCP3wg9V+7H+RQ7VbOGTgzIyftCjCcWDV7qCt8AVWLhOzvYtXsI7hrcetdMg2DewBqKZmZ6fz4homce67Xh+2WO4W40AkFBhCRSlWd60xODI2bOun2wOFq96Ft++0AxpBmBbYspVevFKbfeRlnnDGARx9dyupV2+nXL5U777qMESMG4jvyEvsqV2NpiHX7nqJ38mi6e36IVbmd0L73CfheAjFIHHErAMFdS1qppYEiJKckMv3Oyxg+vP924JbOJC50UoHheEt+JLG7SxO7u25P2nskyeGwf9jQVF/LUnr37sa06ZeS5+3Lw3MXs3ZtCf36pTIz/3IGDkzD5ztAuHcdoCAGIauGQOgIVsDANWo6iEmodAWBbS+CQuLwqSgQ2tXCzBAFMZ0kp7gYObLbDmCqiLzX0XZrSmfpJjWLiFQB84C/nTl6MFdeORqn02zkOS1LycjoxsyZlzN0aD8eeWQpa9eW0L9/KrNmXUG/fqnMnbOYkh3lGI3mMduCBUteJ1S6Ateou3AOvASsIAHfHwmWvIFrxK04M6882UyqSFIGrpzvYjqclcB0EXm3o+3VHJ22BdcjIjWqujUYDOuPb5goIsIrr3xCOBxBFTIyujNz5jcYktWbeQ8v4dNPSxgwMI3ZsyfTKz2FuXMXU7h1H2JIc5lDqIZAyeug4Bo5DUQI7VlGwPciIgauEbcAVrQlA2ohrt64R92Jo+9EQKtANnS0nVqi0wscRTdu3KNr15TI9T/+GmIIixatpmdaMrNmX8GgQT2ZO/dNPv9sNwMH9mT23ZNJT0/m4blLKNhSisPRiqMSQcO1BLY+A1i4R04DDEJ73ibgewHEwDXiNlCL0O63EFcv3KNnYHTLIrD1Wct95l0RDGen9YRdRWDCIYtXX12Lvy7E9dd/jW7dXGRl9SYzM52HH17CZ+t3kzkknVmzrqBHdzdz5yymoGAfhhFLV1/QsJ9A4XMAuEbejhgmwV1Lqdv2B1vkM25DnCk40kdjdM/Fv+4hEJNONpRwEl1GYBF7YP+vr3yCZVnceutF7Nt3lIfnLmb9+l0MGdKLe+6ZTFJSInPmLMbnOxCjuCcKsFvys2CFcY24FRCCu5YQKHwexMR95gysmlJq180hcmg9joyzO9osbdJlBIYTIr/+2qccKq/iwMFKNny+m+zs3syePZmERAdz576Jz3ewfeKeKAGN+Alsex7ViC2y4SS4828ECp9D6w4ROVZEpPzTdrxy6li6lMBwQuTly7egCllZvbn7nitJTHQw56E3KS4uO0Vxj5eAhgMEtv0RQXANnwIowZ1vEih+OXqKAdppZuW0SqcNDtrCfkUnnHnmIEaNGsQ/Vmxl+/aydr7uazFziPgJ7n0HjdThHHgJ4kipP9jRl94uulwLbsqKFQUMGpzONdeMp6yskmXLNmNZenoeVC2MlEG4R05HA4ep2/RrNHSMriYudHGBRaCmJsDzz/0TK2Lx89svxuEweOutjac2QQCi4g7GPWY24uyGf/1cIhXbbLfcBenSAoPtquvqgrzwwkdYlsWUKRcC8Pbbm4hEYni1SMOXg4rZLRP36NmII8mqXfcQ1rGi5sW1E3X6B3FXEViyczK4+eZJBEORZt2vKiQmOohYyqzZkxk/IZuyskoMsZdvyMvrj18br4wkCDrkMjQtE0UxJAF3+tk4euRFIuWfliXmfj/YcphiYST1dyFmp7Zhl3ioqOrVwH+1VV9VRRU1DBkAjK8NHXKX1XxOxApiiElJxbuUHF0GWDiNZEb1vZHuiZlYWPRIHEy6exiGmDtA14GEYqiagT0N6AERKetoOzVHVxHYCcS6lI0CKcC0sOW/fUvZn90bD/4BS4NYGomu32FfumkkgCoZKaM5Z+Bserq9a4DbgY3tsI0C/s74uyTacRFdjujqeLNCVu0dGw88n7Tx4PNENIA0cLmqEfqkjOOrg+4lPWnYJ8BtIrK2o+v+RfKlFRhAVVOAGWGrbvqmgy+kbDjweyLRRVoUi77J4/jq4Pvp6fauxBZ3fUfXOU47UdUUVX0gHKmr/mzf7/SF9aP19596dem2H+kRf5Gq6j9VdXRH1zPOaaCqyap6fzhSV/3Z/qf1naKf6VFb3I/i4n5JiIr8YDjir6oLHVVVKy7ul436lqyqf4+L+yUlKnIfVf1SB5hx4sSJEydOnDhx4sSJEydOnDhx4sSJEyfOf4rTGnD3DMsXwuo0LcNsOStVIFi4fX6HTzHN8852YuGwZ08piIYLixfEMrkOgKE5s00VdSNWgiIOBEMVS4SIKiExtA4xgr7C+THXaXDWA5LgrDMNy3Aa7ZjVpQJqaMjnm9/qRzFPacqnNzc/HeEswowCybQMTQZtbjUxAcpBnwBKT6WsLxJV62qEK7V+PXGVpcBf20rnyZnRTQzjHAvra8AokL5ANxSXQBClWuAwlhSDfpbnyV/pchtFGzY+2uJNPdQ7M1mVs5W60SiDECvVEtqzIltIVF4EWl1Fr10C5+bOTBaRbwE32hdKKm17gV0Iz9MZBIaxAj9qsGs/rQjsycl3iMHXgVuArwLpMRQTUij2+62Xvbn5f/AVL9jf8GBW3i04rJQRlnI3cCn2ul2n4knrgI9pQ+CYf4/h9ea7DJG7BJ4GzgfSYqxY4x8PdCzaxt/HGZozI0EMbgZeBK4kNnEBnMAw4EGEpzyemYMaHdSUMwR+D1wXzfP0fgrZBrG3YOXbwB1AcoO9FlAZ3ZozlgGUojFNIu9UWIb5bdCHsFtYQ8qAlUAR4BdIUxgKTKDxR6wdwLcF2eP13DPTVzQv5PHMcqF6G7Y3aMpBYDVwlNg+Th1U8LV1HTEJ7PHkDwRuw3bJ9RwF/hdlCUJ1K8lDqOxuLf8f8gANL0iAWgJ8wHo9zLvgeI8JkQLy9HBLs8v1zzzU/JHuMxjjT+Cz0LzmktWXLw3z8Xryc0Bn0FhcBf4BzEN1ra/4sWqA3Nx8MQzSUM4D7gXGNUgjwLUQeQ34WNAs4KJmKlIM3CGGfDC0Irk27WCY1iInAfw4+JDBbXrGmAQWuBh7fceGF/ts2LLm7Ni+MBhLHg3J9U4T00rsh+jXFcasoa4HJz8ujF6Mefdw0bsve7Lfc1aoXv8JnEvzniLiJT+M3aKKLNUVdeGAb8/OX6m3j9G9hvAsL/l9mxgfhG94Pfm91lBnABGUX1LMZmAycGaTMj4Ffu4rWtDoQw7FxQsUOAL8zevJL8d26TkNTukH+nXs52UGMLCZ+r8tlvH3bUWP6rb2GrMN2hQ4L3emW2ESjX86sgvlL6ci7vhx/yPHKhPOV9GHsN2aq5XTa4CXRdSBci7w47byVwiJiM/tdM0GlgBu4Bogt5nTR0Y3gAjCq57c/O3AhdAoog0AzzUVtynBiK5KMOWPwBwau9jRebkzXRaY0nzckyKmZUKrDfeUaFNgFaM76Jgmu31qndo3649V9vw68FvA2+RQGHs19oZ1q2tYlRiLcGKv6D7X68kvxH6UBLDXbhYaG9iK7if6b0SgO3BGkzx3IfJBWwXv3PGY5fXmr0CZAvRvcChPRZIFyrGf4f2bJL3cUm7w5ua/iyF1zeWtSsRQrTMj1BaULIg5aG1TYBErXVUymuzeLk5p90LXHs+sHNC5nBDXAtYCb9pGJMgJIQ21tKiFrMLAK8BeToiWDXydE3HCKOxuyLPALOwfpH0P+GaDfN4CFkXTq4huQiVN7XMbst+Q1uOIBhbbAdpUxDQgyRCjWNV6R+GnTRL1AX6J4EO12YBVIKxCTdhBiTd35jIM60Of73F/W7VpuwXbBmt63qE+/SrU144HRnbuvYYQuhbbLdezErgx3MPv2/Hpr9vTlQoBT/uKFnzsHXq3qaqoZbkNuBM70HHYNuEMTIK+wgVLATye/JHSUGCVAl/x/FcaZuz15A+BkwYcKizLiqknIBKuUjWbGt4ESSn0PbonLzf/SYRc4Lwm5yQDY2IpA5HrUfPlvNz8eduKFxxs7dQYgqxmV/sKffTB79qhBzgknAZcwQkXqcD/+YoWbLubh9nDA8cjZAGqJMA/TJ9Wht9oLjsl+ut6X+Ej9S622pubvxKhkhPRbxIWwokW0fQ6Tu6KiDS/jHCMvVUrYiLNLmhtf0tpd131lkHu5BtBZmAHc31o/2I4PYGpKshQb/6sQt+Cmhbt3lZOAjV64jlVvzPZO/o+fJ/Pjb1KYvVFJafJ3qu9nvzRr1HV3AVKXzzvVBbxSizZ2ykkctL6Ru0cYlHVSml6vdDDsgyTk/c3RwonB45hEa0B8O/9LT4o8npn/RzVF7Cj9QyaF9kJ9MKOCcY2ydcEfmAprwMftFSZWLpJ5UB1tKB6o+WEjkUctCfqU9KiFa5HsKPV1qiAdgj8BSDoUZCj2EavJ90QKwP7md96etH+IKlNbagqjVqZzze/DljF0IWrMitqyYhYjVamEIWqlKCEnJbTULqrMA2YSePHR5rCOZyOwKpaCVIIDGmwe6TDEc4mhpGU4/lAQE5uTxFaXsjExP4ay38WMapRLQDyGuwdpMhYYhAYGA30a7KvAKR5N1o4g13AruZ8zSEUuwdQ7vXkLwJ+AAxuVF3o5/XcJb6ix5v1VW36/oxS/zGxv1jSkBxBvp+XO9vZVvrjqBzAHhA4vgc7wr0euKGZ7Xr+3a1XTv7GoM83vxp7AL/hjZcq6E/zvLMyWsvO48kfAPIDILHB7gjwka9ofu1p1tYJzb5tqk1IjLT4IGqzBf+r9inyyH8b+w1SToN0U1WsSq931mtGmCMtvcu0RDRkJvpF/eXAR4Cn3rzAUcPBXwu3xt6vOx2kcT8bINObne/27VjQNOpdBtyEPcZczzdU9TGvJ/9XEcvYIloXKna6NFPADIRMh2kMx3ahFzTJqxBlRf0fw7NmCfbgS0xhW1jUxJQs0Ds4uf8cATZt3vyLFtPHNlTpNDZpyHoBeLBBmgzscdn/tkyqWvCzAnrYxD/NV7zA5/XMXARyBXbkCPBTK8xBryd/BUod0jR81Upf0cLydmjYxoVQhhLkxKjcJZjc4/Xkv4tQIypbtxXNr+3lKdl6qCjrGeCRqBhE0/wIuMA0rE2QsM1rWceARBxmNnb3L7uJcLXAM77iBccfZWGHpgN/iNovlhvbBO0NDOLkm+Iz7CHQFolJ4MKCRy2vZ+YzIHnYgwX1rtmNPWrUGmVE30BZanxoiP4GuDuatg+wEDiAUAWNPuToBFmEPez3haDKJ2K/tal/hdcjWpcZKKWKXg1sXPn3/8OTO/N5EekPTOHEwIcBZEa3yW0UVwX8Vi3+2GR/AvaYeH9Oj4PAQl/Rgl2tnRRz/8tX9NghRPOBx7GDjXa71eLi+WHF+hXwECcmADijBh+O3R2o3/KAAQ2SSwv/p5X9jf4WSzZg31AHm5yTgH0THrdHUfFjVdFRt59jD8jEOnIXwB6dmwbMK9q+oKq9dmoDBTYDd0TUfKOtk9s1o8Pne2x/Xu6shxR9FeGr2CKk0LrBjwkcPm64ooVVw7LueiJiGv9E5ErsZ3Jza2A5gA0AqhIW9KNofhYQVE5eeEzQfWoHZt2iuz7GOHEj+rbPD+Xk5D9jGHwm9jBmf2xRBahQtGEQiK/osSrgBW9u/jKECQrjxb4R+2EHUo76+mB3J7eC/gtYKwm1pdu2/ObkRqD4Ed5ESKc9jcT+gGMlsEGUFY5AoMi355dtznM75dkEHs8DmARFsVpdAUwAE6yCogUnHcvJmSGmiNHK0rDqK1pgZWXdh8MMiYg9m0oRIpjWjqLG73iHeWZgYZyI9wwUF+rbcHLZWZ58MRusQqkoESLWjqInWryWHO8siEQcpmG6UJIQdQmEsbTWEmqcYoQLiua3Kpo3Kx8cGO2afWVX0MaB5duyoJ2J48SJEydOnDhx4sSJEzv/H//DqgxqHJ77AAAAAElFTkSuQmCC;clipPath=inset(18.33% 21.67% 30% 22.5%);" parent="1" vertex="1">
          <mxGeometry x="743" y="283" width="54.03" height="50" as="geometry" />
        </mxCell>
        <mxCell id="h04FcvrwTLZJZCFSyWnr-49" value="" style="shape=image;imageAspect=0;aspect=fixed;verticalLabelPosition=bottom;verticalAlign=top;image=https://d1q6f0aelx0por.cloudfront.net/product-logos/library-alpine-logo.png;" parent="1" vertex="1">
          <mxGeometry x="483" y="299" width="50" height="50" as="geometry" />
        </mxCell>
        <mxCell id="h04FcvrwTLZJZCFSyWnr-50" value="" style="shape=image;imageAspect=0;aspect=fixed;verticalLabelPosition=bottom;verticalAlign=top;image=https://d1q6f0aelx0por.cloudfront.net/product-logos/library-alpine-logo.png;" parent="1" vertex="1">
          <mxGeometry x="663" y="185" width="50" height="50" as="geometry" />
        </mxCell>
        <mxCell id="h04FcvrwTLZJZCFSyWnr-52" value="" style="shape=image;imageAspect=0;aspect=fixed;verticalLabelPosition=bottom;verticalAlign=top;image=https://d1q6f0aelx0por.cloudfront.net/product-logos/library-node-logo.png;" parent="1" vertex="1">
          <mxGeometry x="654" y="229" width="60" height="60" as="geometry" />
        </mxCell>
        <mxCell id="h04FcvrwTLZJZCFSyWnr-64" value="" style="endArrow=classic;html=1;rounded=0;dashed=1;entryX=0;entryY=0.25;entryDx=0;entryDy=0;exitX=1;exitY=0.5;exitDx=0;exitDy=0;" parent="1" source="h04FcvrwTLZJZCFSyWnr-29" target="h04FcvrwTLZJZCFSyWnr-24" edge="1">
          <mxGeometry width="50" height="50" relative="1" as="geometry">
            <mxPoint x="193" y="211" as="sourcePoint" />
            <mxPoint x="243" y="161" as="targetPoint" />
          </mxGeometry>
        </mxCell>
        <mxCell id="h04FcvrwTLZJZCFSyWnr-66" value="" style="endArrow=classic;html=1;rounded=0;dashed=1;dashPattern=1 1;exitX=1;exitY=0.5;exitDx=0;exitDy=0;" parent="1" source="h04FcvrwTLZJZCFSyWnr-28" edge="1">
          <mxGeometry width="50" height="50" relative="1" as="geometry">
            <mxPoint x="193" y="261" as="sourcePoint" />
            <mxPoint x="273" y="201" as="targetPoint" />
          </mxGeometry>
        </mxCell>
        <mxCell id="h04FcvrwTLZJZCFSyWnr-67" value="" style="endArrow=classic;html=1;rounded=0;exitX=1;exitY=0.5;exitDx=0;exitDy=0;" parent="1" source="h04FcvrwTLZJZCFSyWnr-26" edge="1">
          <mxGeometry width="50" height="50" relative="1" as="geometry">
            <mxPoint x="193" y="311" as="sourcePoint" />
            <mxPoint x="273" y="211" as="targetPoint" />
          </mxGeometry>
        </mxCell>
        <mxCell id="h04FcvrwTLZJZCFSyWnr-68" value="" style="shape=image;imageAspect=0;aspect=fixed;verticalLabelPosition=bottom;verticalAlign=top;image=https://d1q6f0aelx0por.cloudfront.net/product-logos/library-alpine-logo.png;" parent="1" vertex="1">
          <mxGeometry x="330" y="311" width="20" height="20" as="geometry" />
        </mxCell>
        <mxCell id="h04FcvrwTLZJZCFSyWnr-70" value="" style="sketch=0;aspect=fixed;html=1;points=[];align=center;image;fontSize=12;image=img/lib/mscae/Cache_Redis_Product.svg;" parent="1" vertex="1">
          <mxGeometry x="328" y="366" width="23.81" height="20" as="geometry" />
        </mxCell>
        <mxCell id="h04FcvrwTLZJZCFSyWnr-71" value="" style="shape=image;imageAspect=0;aspect=fixed;verticalLabelPosition=bottom;verticalAlign=top;image=data:image/png,iVBORw0KGgoAAAANSUhEUgAAAHgAAAB4CAYAAAA5ZDbSAAAU7ElEQVR42u2aZ5hURbqAv6qTOvckZoaBGSRjIIhKEJRVCYqiLrp31X1cr2vaVRCBQQkSVEBQQdDdvYpelbtiXlkBGTIjCyJBFiTnNHmm6RxOn3Pquz+GHnp6Tk/YP/f+qPd56kefrlP1pQpf1QHgcDgcDofD4XA4HA6Hw+FwOBwOh8PhcDgcDofD4XA4HA6Hw+FwOBwOh8PhcDgcDofD4XA4HA6Hw+FwOBwOh8PhcDgcDofD4XA4HA6H8/8cMvnw5+KqszuGBOKhhwCxFwA9YZGVH67J6rSqZMi0UFsb7LZmXH+/GvqDQGhfzdB2uyzOtb/vMXzbKz3Hamb1xx/+Qvzm5MYRlZFL1wEQbKv8OYrz/O2F/dd8NWBCpLmKN26cevVpX1lxUI/9hhACOYpreZ+crrPX3zL9UqLO2B/fsu+qOToqpms3CJQyt2z758C8a7Z8etM4va12uGPrrIJj/oo7NWZcrTMjZhfkXQNzr95bfPOkqkGEAABAn/VTel0MVD6oCPJQjennnLJt5ZC8q0tXDJygtqUvRIShpbO7nvFXDGfMuB0R3Qiwsru749fiihMbF/vV0N0xpndGREII+ZUcp7+J6/EeN22e8eaeO+aFW9vR1WsndCkP1S4N6tEhiEAIIUNV1O/+4nTp7wFgt9k7uyoODAyq4SUA0AMAWFsdHNajlb94zlwCgE3NGaDL6j/+NqCFHzOACIAAnpj/sVOB8r0AsBwAoPjEt+LnR0sm10T9E3RkWQQAAvHIeU0/WBxB/LuNtD74+q6d1Ovn2tPzwoZ6p47MBgAYItSzrergmrMbp74EADW3ls7OOlR39lW/FnmAaWFKgGBIj963qWL/+9ete2HJoTuX+Frb3zVrX+hSHfEsDuqxkToyCyKCQOnNh73nRtHqiPePUaZ1QQAChAACgIpGZm3MX1wRrH5y1tlVYms7CqnRm8K6OgiBNLQV1tWevljwNrP6X3sOCOXh2tERI94NgAAA0DYWEjO0gtqI909jf1zkSifX+KNfChEj3okhCIlnOjJnbcTXL/H7cPXJLK8aGqMxIwuhPtJihtbJq4WfemTnm5mttcHQzS93PB+pWezXImM1ZDYEAAQgcTRyPPHg7y6Ga8cAAFwM1V4f0qOjGCAFIIAARGV6fl3UP6064p1/85YZ2a3pr+f3z3euiNS97dUi92jILAgAQAgYiM5APHwPRUKMy8ZNgoDOmN0TC0z77MjG+xFbF7yImIPkihHrHzJQqOA0a+OVPcv7edXQQ/VK/nsgEAjEIyN+rjt5X7o6Z70XiMGYPVlNBADV0KWEXOX+6myDsYwmpkCWFdKi9tbIMmr7XPtx38UpgXhkBJKmNmWIEmNGzuUHOTpj9sa2J2AAyN5Y8A+nfGWzBm2e7m6uv/7riztURzxvBLXoGKwP+MaiE8LSG5YQiDEtrzJcN7NnyYQBrVGQAUomDQGQJtrCu+fWC7WRS49GjXiXJgGG2HyBxsGioeGsi/mfvWFdcVE6XdJpefhCFQAAqIYmAaCQWgEBaZwZLQbgf+xZqhyqPTvOFw89wQDSznqUEicAgETEswoVa1N1AQDQARSPGnr6lL98dp8Nxaazx3XrJhadCVQtDmjRX7OmIxTq+xAutSA4gYge61MRqn2t7/oXu7SkJJp2hECw6dr6zuHVQ73x8AOp6gmEaC7FdiLT4tibaXHsSSp7MyyOfVkWxy6rqJSlyhnV1Rurot7HPijb3sRJBjJiKhsB7KHnJ2RPYwEwZCq2uDfYW3XsgTo1MEVD1vxoJ8S6IX5UGJjb47BDsqxLF3oGosWrhp6rDNW9Oqx0TiMn99vwYteyUO3bAS3yIAMQzN4XgURzLa53W4xMBAIRXR1REa6ZOXr7goxmZTe1EwEkjaePu36cb70UCz6uMaNjyvvglGybemQX3V+UWXB3p8wOY5LKPUWZBXd3yy68p70t+zkLFSuSu2OAokcNPrn44DfDUiVgadwnEYFKXSDt8K73B2UWKjXr4MLvnr61POyZozI9G5pvDhAIOemrJn+7aVy4nT17iVWwbG/GybJXDT559NK56YM3v5wBANB7/aSrLgQrFwbikV8zk2kZAIACMLdi/6p7VuGHrdpAMQByKRZ8aG/1sRNP7/tw0bL+T8ZNG0Yw0iglX/YfAgAc85QNCWrR0alml4lQnW1xLd172+tHm5NntffQ98/88PZ/V0W8069EMIEY04qqI5eevfenRXtWDZocbJAfGQBgEzsSQsSEXBQJmqVpiEwMG6qQTpZr103sfT5QtUA1tO7NLAVX+gRAh6AAAMCROxcf6Lt28rNnQpV/CenRW9AkOHREi0cNjqf+ctZ97fNflAVrZ/nj4XvTTcsUgDkl65ednO1fLh02p5amEaLJ2wYwiy8enrT2wq4HETGdJqZDhSBoif9u2DTFVRvzPaUxvV1qn27ZtnJQbo/Slow0JvM6o6Oj3Yd2Udl1ZU1GAAQIxsMjD9WefiBZRoHQJOmurOOIaCSeSkCZmfxYX89UjgGbZhSVB2sXhvXYoFTnNufq5NYOjF50sIMjZ6JNUHaSNDONgUypUwPjy4PVq/zx8JjmRq5Ltq3s6i6Ytm/kwrLLz5p2bxOVigzFvoNA8ogkEEc9xxPzz+5VMmFIS05I1jSgReKJfVZN2Dcspqsjmo5eejpDtn+4YkDrkvzdwxdcyFHci22ifNEqyn6rKPsskuwXqEBVXR0zfOsrDWmTRCRmoVKlXZQr7YJy0S4qZXZRqVaIVEcS+W2aRTidox7Yudh1LlBeHNAio7CRdxEUKp7Ltrq2UADTAxJMMfux0e/8XOTIfc4uWnaZ90dAR7RGjHjHdGuuQIjuku2fdcvoOHnfyDfPJ543naIRQKJCdSdn3jTdKH8tqMWGXZGfQJRpPSpCdQv6rpv4+IE73z7ZoicQwC4qgg8A7vnxrbztFfuf15FlJpuOAECG4vhy5z1L92XDX1vjXwAAcNtcq1EWywDAWn+cAZQhCnYi+4OxUDRR7/FYN8Pr8CwMYOYnlFDGEAkCUie1Vuy8XCdODGo2jZv5/alfPrKUnNk50RMLPpk6mkQiBHKs7vlOUaG+aGBIczvqZI6MXvqvXiUTJpYFa5aEDXWAeWiZu58CGJmK45vrsjq/WPqrOZWN5DF7gSGKDOBke3v2LD1U+0lUj3dOdnJIj958OlA5Y/DWl6fuvG1uVUvCC1SwICLpsua5u8NabHCqoAoVj2Yojs+yidRgz1E/LZIO1Z6wV4bqRGY+R5L9NScRDO04IACVZJAlBSUqgAeQyCA6r/r2j9FzY9+LjL3tXnixZHOdJ+oN2m1OlmFzGzmyzciktoYRpoFB63PJ1KmWkuQ0b2O0gjy+YfaDtTHfeAOYNbm+ACSerTjfvblD7+X/qjr2BLS040rup76LnR1XPjkO4/BB1FD7YitepwBGhuL4e2d3x5dSnXv5f1NYxFDh+Oh3t+VZM19RqNAoX0MgJKprj5z2lk277Yc5jtYo0HfdlOy6qPcxjRmN0ggBiOZW7J8cG/3ukcSzIZtmFByuPrbQGw2UIOJmANhiUjYDIVtAlH8ASf4BCC01mF6q6vFSXdO2qrq6wQDjLgCAB3YvFaLxyCxVj5f6w/6N5Z7yksNVp9bsrz75dCJ2GJqmUWAAaqF4tCEQnt4099a6qL/JjpkAMLds+6ZXZqclX9/4fJwBitCaXVcKF+//YE8Xd/spdlE5mT55a+gTMi3Olb2yOhXvuWPehTQBYApSqA/c4QXXf5Zlcb0lEtroMN8AlC6pwSdO+cqfnnt6TeKAw0QiBACII2D9NihFZUJI1CVbjyXWwkmHVoinA+UTK8Oe5yN6bBAC9IFWFIasr2YY/eKG3i9uaP0EQmyZNtdxAIBgNEhVXe0ZM+L9QvHIQF80eKsnGhjuVUPXX7YTWEEyCBCWqgIlRLJIsggA0G9DcZ/aqPf1GNO6NnYugkOy7OjozJvzw21z6tLbomUIIeCU7CdkKta0pgWrIJ/u5MyrS/d/Ogc3SP/hjc9o1+f2WJYhO1aSlJlSR2avifpe+ujI93fXq4RpGkN28K5FdblW9zKJCMHk/wxkrpqI/+FR2+dlAAAc8Z5r59diIwxAoQ0zXCMEQrQM2bH8u1GzjwAAdHDmE0oF0qAaqc8TdGTxhCMUIhgk9bIDASgQwy1a9Os3vlh42l+xIKyrKUsMgkLlE/m27Om/jHqrYU9CmjNIM/Tf+GLBaX/ZfL8WHdjSBIAAUBXx/mlb+f7nHt7zjtIWByNJygnXDpnqK3LmvW6XrD81lpmAyvTc6oj31T7rJg8ghGhNoo4QCMSjBgBA35zu6xySdVtyGwgAET127ylf+WMAACIVYgKhgX8v/uttahOVffn2zM86ExcDAIiwGKKJsSmhYsIGMdAEszUYkWFQj2efD1TNDmuxUZjSl0LFqvaOnNkrRs/bkaJ4m0Ufsnlm4blA1ZK6WOC3BmKrNmc6Gq6aiG/6tooDz9+1Y66liY7NWKqRhPtGvnHYrdhfsAjSoVRFIoba+2ywcpFGjJGY6hkEsIoyAQBYOXjypSyL86+yIHqSq2iM2eqi/rG/2jond82Qqd5sxfmeTZDKBEKQkCt5eXJJh0hpLMvi/p89wxdeTDwLaWGE+py3ifPg8gg26vVtkszGkRUc9Z6f6Y+HH07dMUtUCOQorrm9czp/M4C4mipuDsuSm55m9t80resR3/m3fGro/nSpkDkENDQyayL+6ftrzxaP3f12o8bTOBip2fFe2b3LdufbsmbJRKhK2XRBSIsNrYn5f930zBdBpkLDYcFNud22OSRrSaNKhEBYjw04Hah4pBaRDs7p8XWhu/3TLotjlkTFBZIgLZBF6fVEEQRxvl2yfCRTofEHCYhgF627e2YUfUsa3d+ah4WOhpGoJwC9clqS9F7U0DrWxQIPGoi25HeF+t3rR0M69F6+alBxmg8CzI7mURvpuLrRUjBw84y8C4HKuX419CADkNK0xAQgKqQ5DtbQyKiL+afsqTryzCN7/9IwXbf6rrfeDwQXnFq9+s+HvutcFfW+qiM2RMtl65gGTPLk+MWASaGea59fFtXUYVEWL0wYQWfM4lWDj43ePG3VnuELzgBAyeVi0h6SDt899WK17m207ohUiGZbXR9vuHV6i6lbW2iy6gCAS7av6Z1x1RtfDXihbV+9IDBLkpmGlc7JP+w5+4a33rlpTxZdsm11tuz8siJyaWqMaX3MamnMcFWFvTO2VRww7t/55nv/GDxFNXcIAME0SdjUbmP0zq7CZRmK42MBzM+eW+LBToN3OiXLCpp89ksIRHT1uspQ3aNzz65uNvCu3zjlBq8aeMpA1hDtBBCcknVLkbNgdRuM3diKrVr4EZySdXeRM//lLbc3zTtbhBB5e+wcAQAYunV29lHv+bneeOhhA8zXXAqATsm6rpMr/6Uz9/7X5x3sOROtgnTcXFYCGhpZ1WHv7J9rTvxh/OFPpTQRQ1Ak6ZeBf94+O9Q9o8NbbsWxibTGKCmhMu/ah/X29nafK4J0Knl4X74ReuLTo5uG2798yA6fjXU0Kp/e5+i8+tncslDdhJihN0pVJCL4822ZH5YOe9nTskAJW5OGpYOYCWriXKsgn863Z8/YP/KNQy1WNnkgUCpZRCuZeeI76Zy/cpwnFng03YaKAmCGbF/fI6Nwwi8j3zoOAHDqnj9v6WjPmSQTMb2TmZ5ZE/XNLjm7c2yaKRUlqyA3O4p23j7//FXu9jNtovKvZrMBQiCgRTH1zn//qDcP2gTrMkpoo/PuqKEVnvKXvx8x4hsAYH2jQoX154JV33vV4NjUweeUbau7uwu3mIlgIJjeB8tUEhJe1QBpfZ309ygSEX251ox5x+9aupm0fIaBqQ4gAIDI4jeKefrXZ0q7+eLBRw3GZFOzAYBLsm3rldlp8t4RC05cMSeBb0fMK8mzZo6zCrK5kwkBlRl5lZFLM81HMCGahnqLXxLuG75wT3t79jSrIJennd4QwEIls6s6bGd3f2UVpX2p7+rIihDgZjApCHBj6oZHIkKFW3EsWzVkSsDcWOayaUxruE1SREkjzSw5AtBoO5t78aCC3p+TVnyAxwBkANLEvqz+w0bwRH35MUMrMMt1L9+sbeuZWTjpxzvmHkn9v7eSgcfve39zZ0f+JBuVT6WzfViPdadmn6lIVPDZZFurbnVuLey/uZ3VNUMhYrVZR4QQJIT6zN49dtfSC1kW18cCoW36TDTVGHbZ+l3/vJ670tW5yl3AJEJDkLKvlgUpnBiJ7Z1ZlZSSmqazEQIF0FyS9aPOrvbvfHnjuFhr5FKo4IeU2yQCAAait77ZNIdCiOCWbVt7ZRaN3zX89X3p2rcRgodHLykpsOdMsKR1MgHqlKw/UQAj8b0TJUSzCPL2oXnXtGp3+FGfJ/S+uV1X5NrcMy1Uqmq4b71cbKJy3GlxNJk6i3/5vN6wjtx/2EXLDkDW8rdYTQoDiyCdy7NlfvTNTRPi6WR877rfG07FvlWgQighn0RoXXtb1o+JOhtvmeHLVhxfSFTwJeXbKFPxUpbieDfb4p6947bX/K2xCQBApmzb6pAsOwkgJnSziPLBHKtrMwBAri3zgk2Qj15xNAIFMNyKfV0nR/74n+6Y/0tLfRBCcGK/h9Z1cuROsAnyweSTRgLAFCqeIN3XjL82oAZfUMEYAUBAJvSrLhkFi366fX51a5UBAPjdvvfkLWU/j9a1+G8YwA0ISCVCz9pl258fvXpUyStd72sUzZN++QwAqLC4z0NGtzXjxgbjwWIDwQoAIgISku4Tr4Q1CCAgUqtkWTW86IZXP+73TLOzwIh/zncd9557tSbqe0wgNNZOcX7QO6vrgtW3TG04Y79zx0L7gdoTYzQtfpNAhCwDsMYmK7uub9dzw3eDJ7cpHUJEcu36iX2rQ55HREIHaMiO2EXr3y7c9/5OQgjsiJ6l/7npzTEeNfiyX4tcaxFlj0NQvih05b+/d/iCU23p65OKXeSVfcsHBuOhaUEtNsxgTMySHVuyre65bWmHw+FwOBwOh8PhcDgcDofD4XA4HA6Hw+FwOBwOh8PhcDgcDofD4XA4HA6Hw+FwOBwOh8PhcDgcDofD4XA4HA6Hw+FwOBwOh8PhcDgczv8J/wtJp6UJdJt75wAAAABJRU5ErkJggg==;" parent="1" vertex="1">
          <mxGeometry x="478" y="351" width="60" height="60" as="geometry" />
        </mxCell>
        <mxCell id="h04FcvrwTLZJZCFSyWnr-72" value="" style="shape=image;imageAspect=0;aspect=fixed;verticalLabelPosition=bottom;verticalAlign=top;image=data:image/png,iVBORw0KGgoAAAANSUhEUgAAAHgAAAB4CAYAAAA5ZDbSAAAU7ElEQVR42u2aZ5hURbqAv6qTOvckZoaBGSRjIIhKEJRVCYqiLrp31X1cr2vaVRCBQQkSVEBQQdDdvYpelbtiXlkBGTIjCyJBFiTnNHmm6RxOn3Pquz+GHnp6Tk/YP/f+qPd56kefrlP1pQpf1QHgcDgcDofD4XA4HA6Hw+FwOBwOh8PhcDgcDofD4XA4HA6Hw+FwOBwOh8PhcDgcDofD4XA4HA6Hw+FwOBwOh8PhcDgcDofD4XA4HA6H8/8cMvnw5+KqszuGBOKhhwCxFwA9YZGVH67J6rSqZMi0UFsb7LZmXH+/GvqDQGhfzdB2uyzOtb/vMXzbKz3Hamb1xx/+Qvzm5MYRlZFL1wEQbKv8OYrz/O2F/dd8NWBCpLmKN26cevVpX1lxUI/9hhACOYpreZ+crrPX3zL9UqLO2B/fsu+qOToqpms3CJQyt2z758C8a7Z8etM4va12uGPrrIJj/oo7NWZcrTMjZhfkXQNzr95bfPOkqkGEAABAn/VTel0MVD6oCPJQjennnLJt5ZC8q0tXDJygtqUvRIShpbO7nvFXDGfMuB0R3Qiwsru749fiihMbF/vV0N0xpndGREII+ZUcp7+J6/EeN22e8eaeO+aFW9vR1WsndCkP1S4N6tEhiEAIIUNV1O/+4nTp7wFgt9k7uyoODAyq4SUA0AMAWFsdHNajlb94zlwCgE3NGaDL6j/+NqCFHzOACIAAnpj/sVOB8r0AsBwAoPjEt+LnR0sm10T9E3RkWQQAAvHIeU0/WBxB/LuNtD74+q6d1Ovn2tPzwoZ6p47MBgAYItSzrergmrMbp74EADW3ls7OOlR39lW/FnmAaWFKgGBIj963qWL/+9ete2HJoTuX+Frb3zVrX+hSHfEsDuqxkToyCyKCQOnNh73nRtHqiPePUaZ1QQAChAACgIpGZm3MX1wRrH5y1tlVYms7CqnRm8K6OgiBNLQV1tWevljwNrP6X3sOCOXh2tERI94NgAAA0DYWEjO0gtqI909jf1zkSifX+KNfChEj3okhCIlnOjJnbcTXL/H7cPXJLK8aGqMxIwuhPtJihtbJq4WfemTnm5mttcHQzS93PB+pWezXImM1ZDYEAAQgcTRyPPHg7y6Ga8cAAFwM1V4f0qOjGCAFIIAARGV6fl3UP6064p1/85YZ2a3pr+f3z3euiNS97dUi92jILAgAQAgYiM5APHwPRUKMy8ZNgoDOmN0TC0z77MjG+xFbF7yImIPkihHrHzJQqOA0a+OVPcv7edXQQ/VK/nsgEAjEIyN+rjt5X7o6Z70XiMGYPVlNBADV0KWEXOX+6myDsYwmpkCWFdKi9tbIMmr7XPtx38UpgXhkBJKmNmWIEmNGzuUHOTpj9sa2J2AAyN5Y8A+nfGWzBm2e7m6uv/7riztURzxvBLXoGKwP+MaiE8LSG5YQiDEtrzJcN7NnyYQBrVGQAUomDQGQJtrCu+fWC7WRS49GjXiXJgGG2HyBxsGioeGsi/mfvWFdcVE6XdJpefhCFQAAqIYmAaCQWgEBaZwZLQbgf+xZqhyqPTvOFw89wQDSznqUEicAgETEswoVa1N1AQDQARSPGnr6lL98dp8Nxaazx3XrJhadCVQtDmjRX7OmIxTq+xAutSA4gYge61MRqn2t7/oXu7SkJJp2hECw6dr6zuHVQ73x8AOp6gmEaC7FdiLT4tibaXHsSSp7MyyOfVkWxy6rqJSlyhnV1Rurot7HPijb3sRJBjJiKhsB7KHnJ2RPYwEwZCq2uDfYW3XsgTo1MEVD1vxoJ8S6IX5UGJjb47BDsqxLF3oGosWrhp6rDNW9Oqx0TiMn99vwYteyUO3bAS3yIAMQzN4XgURzLa53W4xMBAIRXR1REa6ZOXr7goxmZTe1EwEkjaePu36cb70UCz6uMaNjyvvglGybemQX3V+UWXB3p8wOY5LKPUWZBXd3yy68p70t+zkLFSuSu2OAokcNPrn44DfDUiVgadwnEYFKXSDt8K73B2UWKjXr4MLvnr61POyZozI9G5pvDhAIOemrJn+7aVy4nT17iVWwbG/GybJXDT559NK56YM3v5wBANB7/aSrLgQrFwbikV8zk2kZAIACMLdi/6p7VuGHrdpAMQByKRZ8aG/1sRNP7/tw0bL+T8ZNG0Yw0iglX/YfAgAc85QNCWrR0alml4lQnW1xLd172+tHm5NntffQ98/88PZ/V0W8069EMIEY04qqI5eevfenRXtWDZocbJAfGQBgEzsSQsSEXBQJmqVpiEwMG6qQTpZr103sfT5QtUA1tO7NLAVX+gRAh6AAAMCROxcf6Lt28rNnQpV/CenRW9AkOHREi0cNjqf+ctZ97fNflAVrZ/nj4XvTTcsUgDkl65ednO1fLh02p5amEaLJ2wYwiy8enrT2wq4HETGdJqZDhSBoif9u2DTFVRvzPaUxvV1qn27ZtnJQbo/Slow0JvM6o6Oj3Yd2Udl1ZU1GAAQIxsMjD9WefiBZRoHQJOmurOOIaCSeSkCZmfxYX89UjgGbZhSVB2sXhvXYoFTnNufq5NYOjF50sIMjZ6JNUHaSNDONgUypUwPjy4PVq/zx8JjmRq5Ltq3s6i6Ytm/kwrLLz5p2bxOVigzFvoNA8ogkEEc9xxPzz+5VMmFIS05I1jSgReKJfVZN2Dcspqsjmo5eejpDtn+4YkDrkvzdwxdcyFHci22ifNEqyn6rKPsskuwXqEBVXR0zfOsrDWmTRCRmoVKlXZQr7YJy0S4qZXZRqVaIVEcS+W2aRTidox7Yudh1LlBeHNAio7CRdxEUKp7Ltrq2UADTAxJMMfux0e/8XOTIfc4uWnaZ90dAR7RGjHjHdGuuQIjuku2fdcvoOHnfyDfPJ543naIRQKJCdSdn3jTdKH8tqMWGXZGfQJRpPSpCdQv6rpv4+IE73z7ZoicQwC4qgg8A7vnxrbztFfuf15FlJpuOAECG4vhy5z1L92XDX1vjXwAAcNtcq1EWywDAWn+cAZQhCnYi+4OxUDRR7/FYN8Pr8CwMYOYnlFDGEAkCUie1Vuy8XCdODGo2jZv5/alfPrKUnNk50RMLPpk6mkQiBHKs7vlOUaG+aGBIczvqZI6MXvqvXiUTJpYFa5aEDXWAeWiZu58CGJmK45vrsjq/WPqrOZWN5DF7gSGKDOBke3v2LD1U+0lUj3dOdnJIj958OlA5Y/DWl6fuvG1uVUvCC1SwICLpsua5u8NabHCqoAoVj2Yojs+yidRgz1E/LZIO1Z6wV4bqRGY+R5L9NScRDO04IACVZJAlBSUqgAeQyCA6r/r2j9FzY9+LjL3tXnixZHOdJ+oN2m1OlmFzGzmyzciktoYRpoFB63PJ1KmWkuQ0b2O0gjy+YfaDtTHfeAOYNbm+ACSerTjfvblD7+X/qjr2BLS040rup76LnR1XPjkO4/BB1FD7YitepwBGhuL4e2d3x5dSnXv5f1NYxFDh+Oh3t+VZM19RqNAoX0MgJKprj5z2lk277Yc5jtYo0HfdlOy6qPcxjRmN0ggBiOZW7J8cG/3ukcSzIZtmFByuPrbQGw2UIOJmANhiUjYDIVtAlH8ASf4BCC01mF6q6vFSXdO2qrq6wQDjLgCAB3YvFaLxyCxVj5f6w/6N5Z7yksNVp9bsrz75dCJ2GJqmUWAAaqF4tCEQnt4099a6qL/JjpkAMLds+6ZXZqclX9/4fJwBitCaXVcKF+//YE8Xd/spdlE5mT55a+gTMi3Olb2yOhXvuWPehTQBYApSqA/c4QXXf5Zlcb0lEtroMN8AlC6pwSdO+cqfnnt6TeKAw0QiBACII2D9NihFZUJI1CVbjyXWwkmHVoinA+UTK8Oe5yN6bBAC9IFWFIasr2YY/eKG3i9uaP0EQmyZNtdxAIBgNEhVXe0ZM+L9QvHIQF80eKsnGhjuVUPXX7YTWEEyCBCWqgIlRLJIsggA0G9DcZ/aqPf1GNO6NnYugkOy7OjozJvzw21z6tLbomUIIeCU7CdkKta0pgWrIJ/u5MyrS/d/Ogc3SP/hjc9o1+f2WJYhO1aSlJlSR2avifpe+ujI93fXq4RpGkN28K5FdblW9zKJCMHk/wxkrpqI/+FR2+dlAAAc8Z5r59diIwxAoQ0zXCMEQrQM2bH8u1GzjwAAdHDmE0oF0qAaqc8TdGTxhCMUIhgk9bIDASgQwy1a9Os3vlh42l+xIKyrKUsMgkLlE/m27Om/jHqrYU9CmjNIM/Tf+GLBaX/ZfL8WHdjSBIAAUBXx/mlb+f7nHt7zjtIWByNJygnXDpnqK3LmvW6XrD81lpmAyvTc6oj31T7rJg8ghGhNoo4QCMSjBgBA35zu6xySdVtyGwgAET127ylf+WMAACIVYgKhgX8v/uttahOVffn2zM86ExcDAIiwGKKJsSmhYsIGMdAEszUYkWFQj2efD1TNDmuxUZjSl0LFqvaOnNkrRs/bkaJ4m0Ufsnlm4blA1ZK6WOC3BmKrNmc6Gq6aiG/6tooDz9+1Y66liY7NWKqRhPtGvnHYrdhfsAjSoVRFIoba+2ywcpFGjJGY6hkEsIoyAQBYOXjypSyL86+yIHqSq2iM2eqi/rG/2jond82Qqd5sxfmeTZDKBEKQkCt5eXJJh0hpLMvi/p89wxdeTDwLaWGE+py3ifPg8gg26vVtkszGkRUc9Z6f6Y+HH07dMUtUCOQorrm9czp/M4C4mipuDsuSm55m9t80resR3/m3fGro/nSpkDkENDQyayL+6ftrzxaP3f12o8bTOBip2fFe2b3LdufbsmbJRKhK2XRBSIsNrYn5f930zBdBpkLDYcFNud22OSRrSaNKhEBYjw04Hah4pBaRDs7p8XWhu/3TLotjlkTFBZIgLZBF6fVEEQRxvl2yfCRTofEHCYhgF627e2YUfUsa3d+ah4WOhpGoJwC9clqS9F7U0DrWxQIPGoi25HeF+t3rR0M69F6+alBxmg8CzI7mURvpuLrRUjBw84y8C4HKuX419CADkNK0xAQgKqQ5DtbQyKiL+afsqTryzCN7/9IwXbf6rrfeDwQXnFq9+s+HvutcFfW+qiM2RMtl65gGTPLk+MWASaGea59fFtXUYVEWL0wYQWfM4lWDj43ePG3VnuELzgBAyeVi0h6SDt899WK17m207ohUiGZbXR9vuHV6i6lbW2iy6gCAS7av6Z1x1RtfDXihbV+9IDBLkpmGlc7JP+w5+4a33rlpTxZdsm11tuz8siJyaWqMaX3MamnMcFWFvTO2VRww7t/55nv/GDxFNXcIAME0SdjUbmP0zq7CZRmK42MBzM+eW+LBToN3OiXLCpp89ksIRHT1uspQ3aNzz65uNvCu3zjlBq8aeMpA1hDtBBCcknVLkbNgdRuM3diKrVr4EZySdXeRM//lLbc3zTtbhBB5e+wcAQAYunV29lHv+bneeOhhA8zXXAqATsm6rpMr/6Uz9/7X5x3sOROtgnTcXFYCGhpZ1WHv7J9rTvxh/OFPpTQRQ1Ak6ZeBf94+O9Q9o8NbbsWxibTGKCmhMu/ah/X29nafK4J0Knl4X74ReuLTo5uG2798yA6fjXU0Kp/e5+i8+tncslDdhJihN0pVJCL4822ZH5YOe9nTskAJW5OGpYOYCWriXKsgn863Z8/YP/KNQy1WNnkgUCpZRCuZeeI76Zy/cpwnFng03YaKAmCGbF/fI6Nwwi8j3zoOAHDqnj9v6WjPmSQTMb2TmZ5ZE/XNLjm7c2yaKRUlqyA3O4p23j7//FXu9jNtovKvZrMBQiCgRTH1zn//qDcP2gTrMkpoo/PuqKEVnvKXvx8x4hsAYH2jQoX154JV33vV4NjUweeUbau7uwu3mIlgIJjeB8tUEhJe1QBpfZ309ygSEX251ox5x+9aupm0fIaBqQ4gAIDI4jeKefrXZ0q7+eLBRw3GZFOzAYBLsm3rldlp8t4RC05cMSeBb0fMK8mzZo6zCrK5kwkBlRl5lZFLM81HMCGahnqLXxLuG75wT3t79jSrIJennd4QwEIls6s6bGd3f2UVpX2p7+rIihDgZjApCHBj6oZHIkKFW3EsWzVkSsDcWOayaUxruE1SREkjzSw5AtBoO5t78aCC3p+TVnyAxwBkANLEvqz+w0bwRH35MUMrMMt1L9+sbeuZWTjpxzvmHkn9v7eSgcfve39zZ0f+JBuVT6WzfViPdadmn6lIVPDZZFurbnVuLey/uZ3VNUMhYrVZR4QQJIT6zN49dtfSC1kW18cCoW36TDTVGHbZ+l3/vJ670tW5yl3AJEJDkLKvlgUpnBiJ7Z1ZlZSSmqazEQIF0FyS9aPOrvbvfHnjuFhr5FKo4IeU2yQCAAait77ZNIdCiOCWbVt7ZRaN3zX89X3p2rcRgodHLykpsOdMsKR1MgHqlKw/UQAj8b0TJUSzCPL2oXnXtGp3+FGfJ/S+uV1X5NrcMy1Uqmq4b71cbKJy3GlxNJk6i3/5vN6wjtx/2EXLDkDW8rdYTQoDiyCdy7NlfvTNTRPi6WR877rfG07FvlWgQighn0RoXXtb1o+JOhtvmeHLVhxfSFTwJeXbKFPxUpbieDfb4p6947bX/K2xCQBApmzb6pAsOwkgJnSziPLBHKtrMwBAri3zgk2Qj15xNAIFMNyKfV0nR/74n+6Y/0tLfRBCcGK/h9Z1cuROsAnyweSTRgLAFCqeIN3XjL82oAZfUMEYAUBAJvSrLhkFi366fX51a5UBAPjdvvfkLWU/j9a1+G8YwA0ISCVCz9pl258fvXpUyStd72sUzZN++QwAqLC4z0NGtzXjxgbjwWIDwQoAIgISku4Tr4Q1CCAgUqtkWTW86IZXP+73TLOzwIh/zncd9557tSbqe0wgNNZOcX7QO6vrgtW3TG04Y79zx0L7gdoTYzQtfpNAhCwDsMYmK7uub9dzw3eDJ7cpHUJEcu36iX2rQ55HREIHaMiO2EXr3y7c9/5OQgjsiJ6l/7npzTEeNfiyX4tcaxFlj0NQvih05b+/d/iCU23p65OKXeSVfcsHBuOhaUEtNsxgTMySHVuyre65bWmHw+FwOBwOh8PhcDgcDofD4XA4HA6Hw+FwOBwOh8PhcDgcDofD4XA4HA6Hw+FwOBwOh8PhcDgcDofD4XA4HA6Hw+FwOBwOh8PhcDgczv8J/wtJp6UJdJt75wAAAABJRU5ErkJggg==;" parent="1" vertex="1">
          <mxGeometry x="325" y="417" width="30" height="30" as="geometry" />
        </mxCell>
        <mxCell id="h04FcvrwTLZJZCFSyWnr-74" value="" style="endArrow=classic;html=1;rounded=0;dashed=1;exitX=1;exitY=0.5;exitDx=0;exitDy=0;" parent="1" edge="1">
          <mxGeometry width="50" height="50" relative="1" as="geometry">
            <mxPoint x="566" y="221" as="sourcePoint" />
            <mxPoint x="530" y="321" as="targetPoint" />
          </mxGeometry>
        </mxCell>
        <mxCell id="h04FcvrwTLZJZCFSyWnr-75" value="" style="endArrow=classic;html=1;rounded=0;dashed=1;dashPattern=1 1;entryX=1.008;entryY=0.425;entryDx=0;entryDy=0;entryPerimeter=0;" parent="1" edge="1">
          <mxGeometry width="50" height="50" relative="1" as="geometry">
            <mxPoint x="663" y="319" as="sourcePoint" />
            <mxPoint x="532.9908800000001" y="429" as="targetPoint" />
          </mxGeometry>
        </mxCell>
        <mxCell id="h04FcvrwTLZJZCFSyWnr-76" value="" style="endArrow=classic;html=1;rounded=0;dashed=1;dashPattern=1 1;exitX=1;exitY=0.5;exitDx=0;exitDy=0;" parent="1" edge="1">
          <mxGeometry width="50" height="50" relative="1" as="geometry">
            <mxPoint x="573" y="200" as="sourcePoint" />
            <mxPoint x="673" y="295" as="targetPoint" />
          </mxGeometry>
        </mxCell>
        <mxCell id="h04FcvrwTLZJZCFSyWnr-79" value="" style="endArrow=classic;html=1;rounded=0;exitX=1;exitY=0.5;exitDx=0;exitDy=0;entryX=1;entryY=0.5;entryDx=0;entryDy=0;entryPerimeter=0;" parent="1" edge="1">
          <mxGeometry width="50" height="50" relative="1" as="geometry">
            <mxPoint x="474" y="383" as="sourcePoint" />
            <mxPoint x="360" y="429.25" as="targetPoint" />
          </mxGeometry>
        </mxCell>
        <mxCell id="h04FcvrwTLZJZCFSyWnr-80" value="" style="endArrow=classic;html=1;rounded=0;exitX=0.433;exitY=1.035;exitDx=0;exitDy=0;exitPerimeter=0;" parent="1" edge="1">
          <mxGeometry width="50" height="50" relative="1" as="geometry">
            <mxPoint x="402.9000000000001" y="221.39999999999998" as="sourcePoint" />
            <mxPoint x="473" y="380" as="targetPoint" />
          </mxGeometry>
        </mxCell>
        <mxCell id="h04FcvrwTLZJZCFSyWnr-81" value="" style="endArrow=classic;html=1;rounded=0;dashed=1;exitX=1;exitY=0.5;exitDx=0;exitDy=0;" parent="1" edge="1">
          <mxGeometry width="50" height="50" relative="1" as="geometry">
            <mxPoint x="653" y="393" as="sourcePoint" />
            <mxPoint x="743" y="393" as="targetPoint" />
          </mxGeometry>
        </mxCell>
        <mxCell id="h04FcvrwTLZJZCFSyWnr-82" value="" style="endArrow=classic;html=1;rounded=0;dashed=1;dashPattern=1 1;exitX=1;exitY=0.5;exitDx=0;exitDy=0;" parent="1" edge="1">
          <mxGeometry width="50" height="50" relative="1" as="geometry">
            <mxPoint x="653" y="422" as="sourcePoint" />
            <mxPoint x="743" y="422" as="targetPoint" />
          </mxGeometry>
        </mxCell>
        <mxCell id="h04FcvrwTLZJZCFSyWnr-83" value="" style="endArrow=classic;html=1;rounded=0;exitX=1;exitY=0.5;exitDx=0;exitDy=0;" parent="1" edge="1">
          <mxGeometry width="50" height="50" relative="1" as="geometry">
            <mxPoint x="653" y="450" as="sourcePoint" />
            <mxPoint x="743" y="450" as="targetPoint" />
          </mxGeometry>
        </mxCell>
        <mxCell id="h04FcvrwTLZJZCFSyWnr-84" value="&lt;b&gt;&lt;font style=&quot;font-size: 14px;&quot;&gt;Build&lt;/font&gt;&lt;/b&gt;" style="text;html=1;align=center;verticalAlign=middle;resizable=0;points=[];autosize=1;strokeColor=none;fillColor=none;strokeWidth=3;" parent="1" vertex="1">
          <mxGeometry x="740" y="379" width="60" height="30" as="geometry" />
        </mxCell>
        <mxCell id="h04FcvrwTLZJZCFSyWnr-85" value="&lt;span style=&quot;font-size: 14px;&quot;&gt;&lt;b&gt;Pull&lt;/b&gt;&lt;/span&gt;" style="text;html=1;align=center;verticalAlign=middle;resizable=0;points=[];autosize=1;strokeColor=none;fillColor=none;strokeWidth=3;" parent="1" vertex="1">
          <mxGeometry x="740" y="408" width="50" height="30" as="geometry" />
        </mxCell>
        <mxCell id="h04FcvrwTLZJZCFSyWnr-86" value="&lt;b&gt;&lt;font style=&quot;font-size: 14px;&quot;&gt;Run&lt;/font&gt;&lt;/b&gt;" style="text;html=1;align=center;verticalAlign=middle;resizable=0;points=[];autosize=1;strokeColor=none;fillColor=none;strokeWidth=3;" parent="1" vertex="1">
          <mxGeometry x="741" y="436" width="50" height="30" as="geometry" />
        </mxCell>
      </root>
    </mxGraphModel>
  </diagram>
</mxfile>
